<?xml version="1.0" encoding="UTF-8" standalone="no"?>
<svg
   xmlns:dc="http://purl.org/dc/elements/1.1/"
   xmlns:cc="http://creativecommons.org/ns#"
   xmlns:rdf="http://www.w3.org/1999/02/22-rdf-syntax-ns#"
   xmlns:svg="http://www.w3.org/2000/svg"
   xmlns="http://www.w3.org/2000/svg"
   xmlns:sodipodi="http://sodipodi.sourceforge.net/DTD/sodipodi-0.dtd"
   xmlns:inkscape="http://www.inkscape.org/namespaces/inkscape"
   inkscape:version="1.0 (4035a4fb49, 2020-05-01)"
   sodipodi:docname="betta_inkscape.svg"
   xml:space="preserve"
   style="enable-background:new 0 0 460 460;"
   viewBox="0 0 460 460"
   y="0px"
   x="0px"
   id="Layer_1"
   version="1.1"><metadata
   id="metadata42"><rdf:RDF><cc:Work
       rdf:about=""><dc:format>image/svg+xml</dc:format><dc:type
         rdf:resource="http://purl.org/dc/dcmitype/StillImage" /><dc:title></dc:title></cc:Work></rdf:RDF></metadata><defs
   id="defs40" /><sodipodi:namedview
   inkscape:current-layer="g4"
   inkscape:window-maximized="0"
   inkscape:window-y="1763"
   inkscape:window-x="1032"
   inkscape:cy="201.78083"
   inkscape:cx="194.32265"
   inkscape:zoom="1.5494862"
   showgrid="false"
   id="namedview38"
   inkscape:window-height="1322"
   inkscape:window-width="1602"
   inkscape:pageshadow="2"
   inkscape:pageopacity="0"
   guidetolerance="10"
   gridtolerance="10"
   objecttolerance="10"
   borderopacity="1"
   bordercolor="#666666"
   pagecolor="#ffffff" />
<g
   id="XMLID_93_">
	<g
   id="g4">
		<path
   id="path2"
   d="M390,160c-32.58-13.032-62.192-10.19-83.572-0.373C314.575,101.394,355,65,355,65c-60,0-101.651,6.991-140,30    c-32.606,19.563-43.946,56.133-47.893,79.212C154.194,171.578,141.619,170,130,170C20,170,0,230,0,230    s12.869,38.565,74.661,53.856C90.131,271.006,100,251.635,100,230h20c0,22.169-8.062,42.486-21.4,58.188    c9.555,1.158,19.986,1.812,31.4,1.812c11.619,0,24.194-1.578,37.107-4.212C171.054,308.867,182.394,345.436,215,365    c38.349,23.009,80,30,140,30c0,0-40.411-36.381-48.568-94.598C323.405,311.668,344.75,322.786,370,330c39.645,11.327,90,0,90,0    C460,250,440,180,390,160z M50,230c-5.523,0-10-4.477-10-10s4.477-10,10-10c5.522,0,10,4.477,10,10S55.522,230,50,230z" />
	</g>
</g>
<g
   id="g7">
</g>
<g
   id="g9">
</g>
<g
   id="g11">
</g>
<g
   id="g13">
</g>
<g
   id="g15">
</g>
<g
   id="g17">
</g>
<g
   id="g19">
</g>
<g
   id="g21">
</g>
<g
   id="g23">
</g>
<g
   id="g25">
</g>
<g
   id="g27">
</g>
<g
   id="g29">
</g>
<g
   id="g31">
</g>
<g
   id="g33">
</g>
<g
   id="g35">
</g>
</svg>
