<?xml version="1.0" encoding="UTF-8"?>
<!-- Svg Vector Icons : http://www.onlinewebfonts.com/icon -->
<!DOCTYPE svg PUBLIC "-//W3C//DTD SVG 1.1//EN" "http://www.w3.org/Graphics/SVG/1.1/DTD/svg11.dtd">
<svg version="1.1" xmlns="http://www.w3.org/2000/svg" xmlns:xlink="http://www.w3.org/1999/xlink" x="0px" y="0px" viewBox="0 0 1000 1000" enable-background="new 0 0 1000 1000" xml:space="preserve">
<metadata> Svg Vector Icons : http://www.onlinewebfonts.com/icon </metadata>
<g><g transform="translate(0.000000,511.000000) scale(0.100000,-0.100000)"><path d="M4148,3621.9c-259-35.6-612.9-132.5-828.4-225.4c-498.2-215.5-937.1-616.8-1162.5-1063.7c-33.6-67.2-61.3-132.5-61.3-142.3c0-9.9,73.2-43.5,164.1-71.2c423.1-140.4,836.3-433,1146.7-810.6c387.5-474.5,646.5-1302.9,646.5-2068c0-164.1-45.5-555.5-77.1-666.2l-19.8-67.2l142.3-65.2c306.4-140.4,719.6-245.2,1136.8-288.7c328.2-33.6,1047.8-13.8,1417.5,39.5c806.6,118.6,1330.5,336.1,1712.1,713.7c247.1,243.2,367.7,456.7,468.6,814.5c53.4,197.7,47.5,844.2-13.8,1122.9c-181.9,842.2-658.3,1522.3-1429.4,2034.4c-569.4,381.6-1156.6,603-1913.8,725.6C5209.6,3647.6,4401,3659.5,4148,3621.9z"/><path d="M1581.8,1917.7c-181.9-102.8-427-353.9-521.9-535.8c-41.5-81.1-71.2-148.3-67.2-150.3c2-2,63.3-15.8,132.5-29.7c523.9-102.8,931.2-500.2,1081.4-1051.8c47.4-177.9,47.4-549.6,0-759.2c-47.5-207.6-140.4-407.3-259-551.6l-94.9-118.6l98.8-90.9c223.4-205.6,409.2-292.6,715.7-338.1c201.7-27.7,431-13.8,668.2,41.5l176,41.5l43.5,211.5C3776.3-344,3517.3,605,2807.6,1320.6c-320.3,322.3-597.1,514-881.8,606.9C1722.2,1994.8,1720.2,1994.8,1581.8,1917.7z"/><path d="M8886.9,1963.2c-37.6-27.7-35.6-35.6,61.3-233.3c55.4-110.7,118.6-247.1,138.4-302.5c31.6-81.1,37.6-89,43.5-49.4c2,27.7,17.8,132.5,35.6,233.3c25.7,150.3,27.7,195.7,7.9,243.2C9122.2,1975,8977.9,2030.4,8886.9,1963.2z"/><path d="M9495.8,1692.3c-45.5-23.7-160.1-227.4-209.6-373.7c-15.8-49.4-39.5-112.7-53.4-140.4c-19.8-41.5-15.8-90.9,17.8-257c152.2-761.2,71.2-1385.9-247.1-1919.7c-94.9-158.2-423.1-516-581.3-634.6l-69.2-51.4l128.5,29.7c296.6,67.2,593.1,199.7,816.5,365.8c322.3,241.2,567.4,701.8,599,1124.9c21.8,278.8-83,591.1-266.9,794.8l-89,98.9l31.6,156.2c17.8,85,73.2,245.1,122.6,355.9c104.8,231.3,114.7,324.2,45.5,403.3C9691.6,1704.2,9567,1727.9,9495.8,1692.3z"/><path d="M704,846.2c-5.9-7.9,53.4-63.3,130.5-122.6C1277.3,387.5,1382.1-89,1125.1-620.8L1046-782.9l75.1-77.1c98.9-102.8,243.2-207.6,304.5-223.4c41.5-9.9,59.3,2,112.7,77.1c170,235.3,249.1,500.2,251.1,822.5c0,484.4-132.5,707.8-531.8,899.5C1030.2,824.4,733.6,893.6,704,846.2z"/><path d="M271,444.8C162.3,310.4,114.8,195.7,103,51.4c-7.9-112.7-2-148.3,41.5-243.2c41.5-90.9,71.2-122.6,168-185.8c134.4-87,349.9-160.2,381.6-128.5c9.9,9.9,43.5,85,71.2,166.1C881.9-7.9,802.8,253,528,434.9C365.9,541.7,350.1,541.7,271,444.8z"/><path d="M1465.2-1745.7c-480.4-189.8-832.3-440.9-962.8-693.9c-49.4-92.9-57.3-128.5-57.3-274.8c0-199.7,35.6-282.7,174-409.2c264.9-243.2,682.1-300.5,1219.8-164.1c197.7,51.4,442.9,150.2,800.7,326.2c585.2,288.6,779,278.8,1312.7-75.1c466.6-310.4,610.9-369.7,933.2-385.5c363.8-15.8,567.4,51.4,909.4,304.4c415.2,304.5,608.9,322.3,1253.4,122.6c448.8-138.4,549.6-160.1,761.2-162.1c223.4-2,332.1,41.5,444.8,172c89,104.8,158.2,318.3,140.4,433c-37.5,231.3-211.5,383.5-563.5,490.3l-144.3,45.5l-191.8-63.3c-387.5-124.6-719.6-181.9-1320.7-221.4c-802.7-53.4-1639,69.2-2198.4,320.3c-69.2,31.7-134.4,57.3-144.3,57.3c-7.9,0-51.4-21.8-90.9-47.5c-199.7-124.5-583.2-199.7-947-183.9c-421.1,17.8-674.2,104.8-978.6,336.1c-94.9,73.2-179.9,132.5-187.8,132.5C1617.4-1688.4,1546.2-1714.1,1465.2-1745.7z"/></g></g>
</svg>